<mxfile host="Electron" agent="Mozilla/5.0 (Windows NT 10.0; Win64; x64) AppleWebKit/537.36 (KHTML, like Gecko) draw.io/26.2.15 Chrome/134.0.6998.205 Electron/35.2.1 Safari/537.36" version="26.2.15">
  <diagram name="Page-1" id="MrOuZl8ZbL_IHAtYhD2H">
    <mxGraphModel dx="1042" dy="660" grid="1" gridSize="10" guides="1" tooltips="1" connect="1" arrows="1" fold="1" page="1" pageScale="1" pageWidth="1100" pageHeight="850" math="0" shadow="0">
      <root>
        <mxCell id="0" />
        <mxCell id="1" parent="0" />
        <mxCell id="jHwhp_ZSn-8eHAWifUZ5-3" value="crm_sales_details" style="swimlane;fontStyle=0;childLayout=stackLayout;horizontal=1;startSize=30;horizontalStack=0;resizeParent=1;resizeParentMax=0;resizeLast=0;collapsible=1;marginBottom=0;whiteSpace=wrap;html=1;fontSize=18;fillColor=#dae8fc;strokeColor=#6c8ebf;rounded=1;" vertex="1" parent="1">
          <mxGeometry x="40" y="280" width="170" height="90" as="geometry" />
        </mxCell>
        <mxCell id="jHwhp_ZSn-8eHAWifUZ5-4" value="cust_id" style="text;strokeColor=none;fillColor=none;align=left;verticalAlign=middle;spacingLeft=4;spacingRight=4;overflow=hidden;points=[[0,0.5],[1,0.5]];portConstraint=eastwest;rotatable=0;whiteSpace=wrap;html=1;fontSize=15;" vertex="1" parent="jHwhp_ZSn-8eHAWifUZ5-3">
          <mxGeometry y="30" width="170" height="30" as="geometry" />
        </mxCell>
        <mxCell id="jHwhp_ZSn-8eHAWifUZ5-5" value="prd_key" style="text;strokeColor=none;fillColor=none;align=left;verticalAlign=middle;spacingLeft=4;spacingRight=4;overflow=hidden;points=[[0,0.5],[1,0.5]];portConstraint=eastwest;rotatable=0;whiteSpace=wrap;html=1;rounded=1;fontSize=15;" vertex="1" parent="jHwhp_ZSn-8eHAWifUZ5-3">
          <mxGeometry y="60" width="170" height="30" as="geometry" />
        </mxCell>
        <mxCell id="jHwhp_ZSn-8eHAWifUZ5-7" value="Transaction Record Abouts Sales and Others" style="rounded=1;whiteSpace=wrap;html=1;fillColor=none;strokeColor=none;" vertex="1" parent="1">
          <mxGeometry x="45" y="230" width="160" height="60" as="geometry" />
        </mxCell>
        <mxCell id="jHwhp_ZSn-8eHAWifUZ5-8" value="crm_cust_info" style="swimlane;fontStyle=0;childLayout=stackLayout;horizontal=1;startSize=30;horizontalStack=0;resizeParent=1;resizeParentMax=0;resizeLast=0;collapsible=1;marginBottom=0;whiteSpace=wrap;html=1;fontSize=18;fillColor=#dae8fc;strokeColor=#6c8ebf;rounded=1;" vertex="1" parent="1">
          <mxGeometry x="280" y="186" width="170" height="90" as="geometry" />
        </mxCell>
        <mxCell id="jHwhp_ZSn-8eHAWifUZ5-9" value="cst_id" style="text;strokeColor=none;fillColor=none;align=left;verticalAlign=middle;spacingLeft=4;spacingRight=4;overflow=hidden;points=[[0,0.5],[1,0.5]];portConstraint=eastwest;rotatable=0;whiteSpace=wrap;html=1;fontSize=15;" vertex="1" parent="jHwhp_ZSn-8eHAWifUZ5-8">
          <mxGeometry y="30" width="170" height="30" as="geometry" />
        </mxCell>
        <mxCell id="jHwhp_ZSn-8eHAWifUZ5-10" value="cst_key" style="text;strokeColor=none;fillColor=none;align=left;verticalAlign=middle;spacingLeft=4;spacingRight=4;overflow=hidden;points=[[0,0.5],[1,0.5]];portConstraint=eastwest;rotatable=0;whiteSpace=wrap;html=1;rounded=1;fontSize=15;" vertex="1" parent="jHwhp_ZSn-8eHAWifUZ5-8">
          <mxGeometry y="60" width="170" height="30" as="geometry" />
        </mxCell>
        <mxCell id="jHwhp_ZSn-8eHAWifUZ5-11" value="cusstomer information" style="rounded=1;whiteSpace=wrap;html=1;fillColor=none;strokeColor=none;" vertex="1" parent="1">
          <mxGeometry x="285" y="136" width="160" height="60" as="geometry" />
        </mxCell>
        <mxCell id="jHwhp_ZSn-8eHAWifUZ5-15" value="crm_prd_info" style="swimlane;fontStyle=0;childLayout=stackLayout;horizontal=1;startSize=30;horizontalStack=0;resizeParent=1;resizeParentMax=0;resizeLast=0;collapsible=1;marginBottom=0;whiteSpace=wrap;html=1;fontSize=18;fillColor=#dae8fc;strokeColor=#6c8ebf;rounded=1;" vertex="1" parent="1">
          <mxGeometry x="280" y="377" width="170" height="60" as="geometry" />
        </mxCell>
        <mxCell id="jHwhp_ZSn-8eHAWifUZ5-16" value="prd_key" style="text;strokeColor=none;fillColor=none;align=left;verticalAlign=middle;spacingLeft=4;spacingRight=4;overflow=hidden;points=[[0,0.5],[1,0.5]];portConstraint=eastwest;rotatable=0;whiteSpace=wrap;html=1;fontSize=15;" vertex="1" parent="jHwhp_ZSn-8eHAWifUZ5-15">
          <mxGeometry y="30" width="170" height="30" as="geometry" />
        </mxCell>
        <mxCell id="jHwhp_ZSn-8eHAWifUZ5-18" value="current &amp;amp; history information" style="rounded=1;whiteSpace=wrap;html=1;fillColor=none;strokeColor=none;" vertex="1" parent="1">
          <mxGeometry x="285" y="330" width="160" height="60" as="geometry" />
        </mxCell>
        <mxCell id="jHwhp_ZSn-8eHAWifUZ5-19" style="edgeStyle=orthogonalEdgeStyle;rounded=0;orthogonalLoop=1;jettySize=auto;html=1;entryX=0;entryY=0.5;entryDx=0;entryDy=0;" edge="1" parent="1" source="jHwhp_ZSn-8eHAWifUZ5-4" target="jHwhp_ZSn-8eHAWifUZ5-9">
          <mxGeometry relative="1" as="geometry" />
        </mxCell>
        <mxCell id="jHwhp_ZSn-8eHAWifUZ5-20" style="edgeStyle=orthogonalEdgeStyle;rounded=0;orthogonalLoop=1;jettySize=auto;html=1;entryX=0;entryY=0.5;entryDx=0;entryDy=0;" edge="1" parent="1" source="jHwhp_ZSn-8eHAWifUZ5-5" target="jHwhp_ZSn-8eHAWifUZ5-16">
          <mxGeometry relative="1" as="geometry" />
        </mxCell>
        <mxCell id="jHwhp_ZSn-8eHAWifUZ5-21" value="erp_cust_az12" style="swimlane;fontStyle=0;childLayout=stackLayout;horizontal=1;startSize=30;horizontalStack=0;resizeParent=1;resizeParentMax=0;resizeLast=0;collapsible=1;marginBottom=0;whiteSpace=wrap;html=1;fontSize=18;fillColor=#fff2cc;strokeColor=#d6b656;rounded=1;" vertex="1" parent="1">
          <mxGeometry x="681" y="216" width="170" height="60" as="geometry" />
        </mxCell>
        <mxCell id="jHwhp_ZSn-8eHAWifUZ5-22" value="cid" style="text;strokeColor=none;fillColor=none;align=left;verticalAlign=middle;spacingLeft=4;spacingRight=4;overflow=hidden;points=[[0,0.5],[1,0.5]];portConstraint=eastwest;rotatable=0;whiteSpace=wrap;html=1;fontSize=15;" vertex="1" parent="jHwhp_ZSn-8eHAWifUZ5-21">
          <mxGeometry y="30" width="170" height="30" as="geometry" />
        </mxCell>
        <mxCell id="jHwhp_ZSn-8eHAWifUZ5-24" value="extra customer information(Birthdate)" style="rounded=1;whiteSpace=wrap;html=1;fillColor=none;strokeColor=none;" vertex="1" parent="1">
          <mxGeometry x="685" y="166" width="160" height="60" as="geometry" />
        </mxCell>
        <mxCell id="jHwhp_ZSn-8eHAWifUZ5-28" value="erp_loc_a101" style="swimlane;fontStyle=0;childLayout=stackLayout;horizontal=1;startSize=30;horizontalStack=0;resizeParent=1;resizeParentMax=0;resizeLast=0;collapsible=1;marginBottom=0;whiteSpace=wrap;html=1;fontSize=18;fillColor=#fff2cc;strokeColor=#d6b656;rounded=1;" vertex="1" parent="1">
          <mxGeometry x="681" y="341" width="170" height="60" as="geometry" />
        </mxCell>
        <mxCell id="jHwhp_ZSn-8eHAWifUZ5-29" value="cid" style="text;strokeColor=none;fillColor=none;align=left;verticalAlign=middle;spacingLeft=4;spacingRight=4;overflow=hidden;points=[[0,0.5],[1,0.5]];portConstraint=eastwest;rotatable=0;whiteSpace=wrap;html=1;fontSize=15;" vertex="1" parent="jHwhp_ZSn-8eHAWifUZ5-28">
          <mxGeometry y="30" width="170" height="30" as="geometry" />
        </mxCell>
        <mxCell id="jHwhp_ZSn-8eHAWifUZ5-30" value="location of customer(country)" style="rounded=1;whiteSpace=wrap;html=1;fillColor=none;strokeColor=none;" vertex="1" parent="1">
          <mxGeometry x="684" y="291" width="160" height="60" as="geometry" />
        </mxCell>
        <mxCell id="jHwhp_ZSn-8eHAWifUZ5-34" value="erp_px_cat_g1v1" style="swimlane;fontStyle=0;childLayout=stackLayout;horizontal=1;startSize=30;horizontalStack=0;resizeParent=1;resizeParentMax=0;resizeLast=0;collapsible=1;marginBottom=0;whiteSpace=wrap;html=1;fontSize=18;fillColor=#fff2cc;strokeColor=#d6b656;rounded=1;" vertex="1" parent="1">
          <mxGeometry x="680" y="475" width="170" height="60" as="geometry" />
        </mxCell>
        <mxCell id="jHwhp_ZSn-8eHAWifUZ5-35" value="id" style="text;strokeColor=none;fillColor=none;align=left;verticalAlign=middle;spacingLeft=4;spacingRight=4;overflow=hidden;points=[[0,0.5],[1,0.5]];portConstraint=eastwest;rotatable=0;whiteSpace=wrap;html=1;fontSize=15;" vertex="1" parent="jHwhp_ZSn-8eHAWifUZ5-34">
          <mxGeometry y="30" width="170" height="30" as="geometry" />
        </mxCell>
        <mxCell id="jHwhp_ZSn-8eHAWifUZ5-36" value="product categories" style="rounded=1;whiteSpace=wrap;html=1;fillColor=none;strokeColor=none;" vertex="1" parent="1">
          <mxGeometry x="685" y="425" width="160" height="60" as="geometry" />
        </mxCell>
        <mxCell id="jHwhp_ZSn-8eHAWifUZ5-37" style="edgeStyle=orthogonalEdgeStyle;rounded=0;orthogonalLoop=1;jettySize=auto;html=1;entryX=0;entryY=0.5;entryDx=0;entryDy=0;" edge="1" parent="1" source="jHwhp_ZSn-8eHAWifUZ5-10" target="jHwhp_ZSn-8eHAWifUZ5-22">
          <mxGeometry relative="1" as="geometry" />
        </mxCell>
        <mxCell id="jHwhp_ZSn-8eHAWifUZ5-40" style="edgeStyle=orthogonalEdgeStyle;rounded=0;orthogonalLoop=1;jettySize=auto;html=1;" edge="1" parent="1" source="jHwhp_ZSn-8eHAWifUZ5-10" target="jHwhp_ZSn-8eHAWifUZ5-29">
          <mxGeometry relative="1" as="geometry" />
        </mxCell>
        <mxCell id="jHwhp_ZSn-8eHAWifUZ5-41" style="edgeStyle=orthogonalEdgeStyle;rounded=0;orthogonalLoop=1;jettySize=auto;html=1;entryX=0;entryY=0.5;entryDx=0;entryDy=0;" edge="1" parent="1" source="jHwhp_ZSn-8eHAWifUZ5-16" target="jHwhp_ZSn-8eHAWifUZ5-35">
          <mxGeometry relative="1" as="geometry" />
        </mxCell>
        <mxCell id="jHwhp_ZSn-8eHAWifUZ5-42" value="" style="rounded=1;whiteSpace=wrap;html=1;fillColor=none;dashed=1;strokeColor=#6c8ebf;" vertex="1" parent="1">
          <mxGeometry x="10" y="121" width="490" height="479" as="geometry" />
        </mxCell>
        <mxCell id="jHwhp_ZSn-8eHAWifUZ5-44" value="" style="rounded=1;whiteSpace=wrap;html=1;fillColor=none;dashed=1;strokeColor=#d6b656;" vertex="1" parent="1">
          <mxGeometry x="620" y="120" width="389" height="480" as="geometry" />
        </mxCell>
        <mxCell id="jHwhp_ZSn-8eHAWifUZ5-45" style="edgeStyle=orthogonalEdgeStyle;rounded=0;orthogonalLoop=1;jettySize=auto;html=1;exitX=0.5;exitY=1;exitDx=0;exitDy=0;" edge="1" parent="1" source="jHwhp_ZSn-8eHAWifUZ5-44" target="jHwhp_ZSn-8eHAWifUZ5-44">
          <mxGeometry relative="1" as="geometry" />
        </mxCell>
        <mxCell id="jHwhp_ZSn-8eHAWifUZ5-46" value="&lt;font style=&quot;font-size: 22px;&quot;&gt;&lt;b&gt;CRM&lt;/b&gt;&lt;/font&gt;" style="rounded=0;whiteSpace=wrap;html=1;fillColor=#dae8fc;strokeColor=none;" vertex="1" parent="1">
          <mxGeometry x="165" y="90" width="120" height="60" as="geometry" />
        </mxCell>
        <mxCell id="jHwhp_ZSn-8eHAWifUZ5-47" value="&lt;span style=&quot;font-size: 22px;&quot;&gt;&lt;b&gt;ERP&lt;/b&gt;&lt;/span&gt;" style="rounded=0;whiteSpace=wrap;html=1;fillColor=#fff2cc;strokeColor=none;" vertex="1" parent="1">
          <mxGeometry x="754.5" y="90" width="120" height="60" as="geometry" />
        </mxCell>
        <mxCell id="jHwhp_ZSn-8eHAWifUZ5-53" value="Data Integration" style="rounded=0;whiteSpace=wrap;html=1;fontSize=24;fontStyle=1;strokeColor=#9673a6;fillColor=#e1d5e7;" vertex="1" parent="1">
          <mxGeometry x="80" y="20" width="240" height="40" as="geometry" />
        </mxCell>
        <mxCell id="jHwhp_ZSn-8eHAWifUZ5-54" value="PPRODUCT" style="text;html=1;strokeColor=#b85450;fillColor=#f8cecc;align=center;verticalAlign=middle;whiteSpace=wrap;overflow=hidden;fontSize=14;" vertex="1" parent="1">
          <mxGeometry x="290" y="437" width="150" height="20" as="geometry" />
        </mxCell>
        <mxCell id="jHwhp_ZSn-8eHAWifUZ5-58" value="PPRODUCT" style="text;html=1;strokeColor=#b85450;fillColor=#f8cecc;align=center;verticalAlign=middle;whiteSpace=wrap;overflow=hidden;fontSize=14;" vertex="1" parent="1">
          <mxGeometry x="689" y="535" width="150" height="20" as="geometry" />
        </mxCell>
        <mxCell id="jHwhp_ZSn-8eHAWifUZ5-59" value="CUSTOMER" style="text;html=1;strokeColor=#82b366;fillColor=#d5e8d4;align=center;verticalAlign=middle;whiteSpace=wrap;overflow=hidden;fontSize=14;" vertex="1" parent="1">
          <mxGeometry x="290" y="276" width="150" height="20" as="geometry" />
        </mxCell>
        <mxCell id="jHwhp_ZSn-8eHAWifUZ5-60" value="CUSTOMER" style="text;html=1;strokeColor=#82b366;fillColor=#d5e8d4;align=center;verticalAlign=middle;whiteSpace=wrap;overflow=hidden;fontSize=14;" vertex="1" parent="1">
          <mxGeometry x="691" y="276" width="150" height="20" as="geometry" />
        </mxCell>
        <mxCell id="jHwhp_ZSn-8eHAWifUZ5-61" value="CUSTOMER" style="text;html=1;strokeColor=#82b366;fillColor=#d5e8d4;align=center;verticalAlign=middle;whiteSpace=wrap;overflow=hidden;fontSize=14;" vertex="1" parent="1">
          <mxGeometry x="689" y="401" width="150" height="20" as="geometry" />
        </mxCell>
        <mxCell id="jHwhp_ZSn-8eHAWifUZ5-62" value="SALES" style="text;html=1;strokeColor=#9673a6;fillColor=#e1d5e7;align=center;verticalAlign=middle;whiteSpace=wrap;overflow=hidden;fontSize=14;" vertex="1" parent="1">
          <mxGeometry x="50" y="370" width="150" height="20" as="geometry" />
        </mxCell>
      </root>
    </mxGraphModel>
  </diagram>
</mxfile>
